G04 #@! TF.GenerationSoftware,KiCad,Pcbnew,7.0.2-6a45011f42~172~ubuntu20.04.1*
G04 #@! TF.CreationDate,2023-04-26T19:15:45+02:00*
G04 #@! TF.ProjectId,Pteron36v0,50746572-6f6e-4333-9676-302e6b696361,rev?*
G04 #@! TF.SameCoordinates,Original*
G04 #@! TF.FileFunction,Profile,NP*
%FSLAX46Y46*%
G04 Gerber Fmt 4.6, Leading zero omitted, Abs format (unit mm)*
G04 Created by KiCad (PCBNEW 7.0.2-6a45011f42~172~ubuntu20.04.1) date 2023-04-26 19:15:45*
%MOMM*%
%LPD*%
G01*
G04 APERTURE LIST*
G04 #@! TA.AperFunction,Profile*
%ADD10C,0.050000*%
G04 #@! TD*
G04 APERTURE END LIST*
D10*
X122402600Y-48133000D02*
X170256200Y-48133000D01*
X241027200Y-103962200D02*
X241027200Y-54737000D01*
X175000000Y-112000000D02*
X175000000Y-115500000D01*
X175000000Y-104500000D02*
X175000000Y-110000000D01*
X240112800Y-104876600D02*
G75*
G03*
X241027200Y-103962200I0J914400D01*
G01*
X241027201Y-54736999D02*
G75*
G03*
X170256200Y-48133001I-41366901J-60797001D01*
G01*
X175000000Y-112000000D02*
G75*
G03*
X174000000Y-112000000I-500000J0D01*
G01*
X175000000Y-99000000D02*
G75*
G03*
X174000000Y-100000000I0J-1000000D01*
G01*
X174000000Y-102000000D02*
X174000000Y-100000000D01*
X192000000Y-116000000D02*
X192000000Y-114000000D01*
X174000000Y-110000000D02*
G75*
G03*
X175000000Y-110000000I500000J0D01*
G01*
X174000000Y-102000000D02*
G75*
G03*
X175000000Y-102000000I500000J0D01*
G01*
X175000000Y-115500000D02*
X175000000Y-116000000D01*
X192000000Y-114000000D02*
X192000000Y-100000000D01*
X226720403Y-104876592D02*
G75*
G03*
X191500000Y-99000000I-34482803J-98184908D01*
G01*
X240112800Y-104876600D02*
X226720400Y-104876600D01*
X174000000Y-116000000D02*
X174000000Y-112000000D01*
X192000000Y-100000000D02*
X175000000Y-100000000D01*
X117576220Y-131063995D02*
G75*
G03*
X127863600Y-137490200I8671380J2434195D01*
G01*
X117576200Y-52000000D02*
X117576200Y-120802400D01*
X175000000Y-100000000D02*
X175000000Y-102000000D01*
X174000000Y-104500000D02*
X174000000Y-110000000D01*
X175000000Y-99000000D02*
X191500000Y-99000000D01*
X117576200Y-120802400D02*
X117576200Y-131064000D01*
X174000001Y-116000003D02*
G75*
G03*
X127863600Y-137490200I21822059J-107118107D01*
G01*
X175000000Y-104500000D02*
G75*
G03*
X174000000Y-104500000I-500000J0D01*
G01*
X122402601Y-48132937D02*
G75*
G03*
X117576199Y-52000000I-112601J-4804863D01*
G01*
X175000000Y-116000000D02*
X192000000Y-116000000D01*
M02*
