M48
; DRILL file {KiCad 7.0.2-6a45011f42~172~ubuntu20.04.1} date Mi 26 Apr 2023 19:15:41 CEST
; FORMAT={-:-/ absolute / inch / decimal}
; #@! TF.CreationDate,2023-04-26T19:15:41+02:00
; #@! TF.GenerationSoftware,Kicad,Pcbnew,7.0.2-6a45011f42~172~ubuntu20.04.1
; #@! TF.FileFunction,NonPlated,1,2,NPTH
FMAT,2
INCH
; #@! TA.AperFunction,NonPlated,NPTH,ComponentDrill
T1C0.0315
; #@! TA.AperFunction,NonPlated,NPTH,ComponentDrill
T2C0.0390
; #@! TA.AperFunction,NonPlated,NPTH,ComponentDrill
T3C0.0670
; #@! TA.AperFunction,NonPlated,NPTH,ComponentDrill
T4C0.1350
%
G90
G05
T1
X4.9555Y-1.9712
X4.9555Y-1.9712
X4.9555Y-2.2468
X4.9555Y-2.2468
T2
X4.9956Y-5.2383
X4.9982Y-4.6379
X5.2484Y-4.964
X5.3217Y-4.9881
X5.612Y-4.8102
X5.9845Y-4.6365
X6.1724Y-2.3963
X6.1724Y-3.0656
X6.1724Y-3.7349
X6.3017Y-4.5284
X6.5835Y-2.3963
X6.5835Y-3.0656
X6.5835Y-3.7349
X6.703Y-4.4395
X6.8811Y-2.3406
X6.8811Y-3.0098
X6.8811Y-3.6791
X7.0334Y-4.4094
X7.2921Y-2.3406
X7.2921Y-3.0098
X7.2921Y-3.6791
X7.4444Y-4.4094
X7.5898Y-2.1453
X7.5898Y-2.8146
X7.5898Y-3.4839
X8.0008Y-2.1453
X8.0008Y-2.8146
X8.0008Y-3.4839
X8.2984Y-2.2848
X8.2984Y-2.9541
X8.2984Y-3.6234
X8.7094Y-2.2848
X8.7094Y-2.9541
X8.7094Y-3.6234
X9.0071Y-2.6194
X9.0071Y-3.2887
X9.0071Y-3.958
X9.4181Y-2.6194
X9.4181Y-3.2887
X9.4181Y-3.958
T3
X4.8603Y-4.7298
X4.8862Y-5.1138
X5.1239Y-5.0734
X5.2298Y-4.8502
X5.5321Y-4.665
X5.9246Y-4.482
X6.1614Y-2.231
X6.1614Y-2.9003
X6.1614Y-3.5696
X6.2551Y-4.3694
X6.5945Y-2.231
X6.5945Y-2.9003
X6.5945Y-3.5696
X6.6779Y-4.2756
X6.8701Y-2.1752
X6.8701Y-2.8445
X6.8701Y-3.5138
X7.0224Y-4.2441
X7.3031Y-2.1752
X7.3031Y-2.8445
X7.3031Y-3.5138
X7.4554Y-4.2441
X7.5787Y-1.98
X7.5787Y-2.6493
X7.5787Y-3.3186
X8.0118Y-1.98
X8.0118Y-2.6493
X8.0118Y-3.3186
X8.2874Y-2.1194
X8.2874Y-2.7887
X8.2874Y-3.458
X8.7205Y-2.1194
X8.7205Y-2.7887
X8.7205Y-3.458
X8.9961Y-2.4541
X8.9961Y-3.1234
X8.9961Y-3.7927
X9.4291Y-2.4541
X9.4291Y-3.1234
X9.4291Y-3.7927
T4
X4.9921Y-4.9016
X5.058Y-4.982
X5.7283Y-4.5735
X6.378Y-2.231
X6.378Y-2.9003
X6.378Y-3.5696
X6.4665Y-4.3225
X7.0866Y-2.1752
X7.0866Y-2.8445
X7.0866Y-3.5138
X7.2389Y-4.2441
X7.7953Y-1.98
X7.7953Y-2.6493
X7.7953Y-3.3186
X8.5039Y-2.1194
X8.5039Y-2.7887
X8.5039Y-3.458
X9.2126Y-2.4541
X9.2126Y-3.1234
X9.2126Y-3.7927
T0
M30
